{
	"asset":{
		"generator":"Khronos glTF Blender I/O v4.0.44",
		"version":"2.0"
	},
	"scene":0,
	"scenes":[
		{
			"name":"Scene",
			"nodes":[
				1,
				3,
				5,
				7,
				9,
				11,
				13
			]
		}
	],
	"nodes":[
		{
			"mesh":0,
			"name":"Text.008",
			"scale":[
				1,
				0.9492616057395935,
				1
			]
		},
		{
			"children":[
				0
			],
			"mesh":1,
			"name":"Text.001",
			"rotation":[
				0.7071068286895752,
				0,
				0,
				0.7071068286895752
			],
			"scale":[
				1,
				1.127102255821228,
				1
			],
			"translation":[
				-0.5,
				0,
				0
			]
		},
		{
			"mesh":2,
			"name":"Text.011",
			"scale":[
				1,
				0.9492616653442383,
				1
			]
		},
		{
			"children":[
				2
			],
			"mesh":3,
			"name":"Text.004",
			"rotation":[
				0.7071068286895752,
				0,
				0,
				0.7071068286895752
			],
			"scale":[
				1,
				1.1780978441238403,
				1
			],
			"translation":[
				0.5999999046325684,
				0,
				0
			]
		},
		{
			"mesh":4,
			"name":"Text.013",
			"scale":[
				1,
				0.9492615461349487,
				1
			]
		},
		{
			"children":[
				4
			],
			"mesh":5,
			"name":"Text.006",
			"rotation":[
				0.7071068286895752,
				0,
				0,
				0.7071068286895752
			],
			"scale":[
				1,
				1.004140853881836,
				1
			],
			"translation":[
				1.3999998569488525,
				0,
				0
			]
		},
		{
			"mesh":6,
			"name":"Text.007",
			"scale":[
				1,
				1.053450345993042,
				1
			]
		},
		{
			"children":[
				6
			],
			"mesh":7,
			"name":"Text",
			"rotation":[
				0.7071068286895752,
				0,
				0,
				0.7071068286895752
			],
			"scale":[
				1,
				0.9208395481109619,
				1
			],
			"translation":[
				-0.9999999403953552,
				0,
				0
			]
		},
		{
			"mesh":8,
			"name":"Text.009",
			"scale":[
				1,
				1.053450345993042,
				1
			]
		},
		{
			"children":[
				8
			],
			"mesh":9,
			"name":"Text.002",
			"rotation":[
				0.7071068286895752,
				0,
				0,
				0.7071068286895752
			],
			"scale":[
				1,
				1.1754268407821655,
				1
			],
			"translation":[
				-0.20000006258487701,
				0,
				0
			]
		},
		{
			"mesh":10,
			"name":"Text.010",
			"scale":[
				1,
				1.0534502267837524,
				1
			]
		},
		{
			"children":[
				10
			],
			"mesh":11,
			"name":"Text.003",
			"rotation":[
				0.7071068286895752,
				0,
				0,
				0.7071068286895752
			],
			"scale":[
				1,
				1.1908236742019653,
				1
			],
			"translation":[
				0.19999992847442627,
				0,
				0
			]
		},
		{
			"mesh":12,
			"name":"Text.012",
			"scale":[
				1,
				1.0534502267837524,
				1
			]
		},
		{
			"children":[
				12
			],
			"mesh":13,
			"name":"Text.005",
			"rotation":[
				0.7071068286895752,
				0,
				0,
				0.7071068286895752
			],
			"scale":[
				1,
				1.0239059925079346,
				1
			],
			"translation":[
				0.9999998807907104,
				0,
				0
			]
		}
	],
	"animations":[
		{
			"channels":[
				{
					"sampler":0,
					"target":{
						"node":1,
						"path":"scale"
					}
				},
				{
					"sampler":1,
					"target":{
						"node":3,
						"path":"scale"
					}
				},
				{
					"sampler":2,
					"target":{
						"node":5,
						"path":"scale"
					}
				},
				{
					"sampler":3,
					"target":{
						"node":7,
						"path":"scale"
					}
				},
				{
					"sampler":4,
					"target":{
						"node":6,
						"path":"scale"
					}
				},
				{
					"sampler":5,
					"target":{
						"node":9,
						"path":"scale"
					}
				},
				{
					"sampler":6,
					"target":{
						"node":8,
						"path":"scale"
					}
				},
				{
					"sampler":7,
					"target":{
						"node":11,
						"path":"scale"
					}
				},
				{
					"sampler":8,
					"target":{
						"node":10,
						"path":"scale"
					}
				},
				{
					"sampler":9,
					"target":{
						"node":13,
						"path":"scale"
					}
				},
				{
					"sampler":10,
					"target":{
						"node":12,
						"path":"scale"
					}
				}
			],
			"name":"Animation",
			"samplers":[
				{
					"input":54,
					"interpolation":"LINEAR",
					"output":55
				},
				{
					"input":54,
					"interpolation":"LINEAR",
					"output":56
				},
				{
					"input":54,
					"interpolation":"LINEAR",
					"output":57
				},
				{
					"input":54,
					"interpolation":"LINEAR",
					"output":58
				},
				{
					"input":59,
					"interpolation":"LINEAR",
					"output":60
				},
				{
					"input":54,
					"interpolation":"LINEAR",
					"output":61
				},
				{
					"input":59,
					"interpolation":"LINEAR",
					"output":62
				},
				{
					"input":54,
					"interpolation":"LINEAR",
					"output":63
				},
				{
					"input":59,
					"interpolation":"LINEAR",
					"output":64
				},
				{
					"input":54,
					"interpolation":"LINEAR",
					"output":65
				},
				{
					"input":59,
					"interpolation":"LINEAR",
					"output":66
				}
			]
		}
	],
	"materials":[
		{
			"doubleSided":true,
			"emissiveFactor":[
				1,
				0.007909794338047504,
				0.10733562707901001
			],
			"name":"Material.001",
			"pbrMetallicRoughness":{
				"baseColorFactor":[
					0,
					0,
					0,
					1
				]
			}
		},
		{
			"doubleSided":true,
			"emissiveFactor":[
				1,
				0.9562574028968811,
				0.9318019151687622
			],
			"name":"Material",
			"pbrMetallicRoughness":{
				"baseColorFactor":[
					0,
					0,
					0,
					1
				]
			}
		}
	],
	"meshes":[
		{
			"name":"Text.008",
			"primitives":[
				{
					"attributes":{
						"POSITION":0,
						"NORMAL":1,
						"TEXCOORD_0":2
					},
					"indices":3,
					"material":0
				}
			]
		},
		{
			"name":"Text.001",
			"primitives":[
				{
					"attributes":{
						"POSITION":4,
						"NORMAL":5,
						"TEXCOORD_0":6
					},
					"indices":7,
					"material":1
				}
			]
		},
		{
			"name":"Text.011",
			"primitives":[
				{
					"attributes":{
						"POSITION":8,
						"NORMAL":9,
						"TEXCOORD_0":10
					},
					"indices":11,
					"material":0
				}
			]
		},
		{
			"name":"Text.004",
			"primitives":[
				{
					"attributes":{
						"POSITION":12,
						"NORMAL":13,
						"TEXCOORD_0":14
					},
					"indices":15,
					"material":1
				}
			]
		},
		{
			"name":"Text.013",
			"primitives":[
				{
					"attributes":{
						"POSITION":16,
						"NORMAL":17,
						"TEXCOORD_0":18
					},
					"indices":19,
					"material":0
				}
			]
		},
		{
			"name":"Text.006",
			"primitives":[
				{
					"attributes":{
						"POSITION":20,
						"NORMAL":21,
						"TEXCOORD_0":22
					},
					"indices":23,
					"material":1
				}
			]
		},
		{
			"name":"Text",
			"primitives":[
				{
					"attributes":{
						"POSITION":24,
						"NORMAL":25,
						"TEXCOORD_0":26
					},
					"indices":27,
					"material":1
				}
			]
		},
		{
			"name":"Text.007",
			"primitives":[
				{
					"attributes":{
						"POSITION":28,
						"NORMAL":29,
						"TEXCOORD_0":30
					},
					"indices":31,
					"material":0
				}
			]
		},
		{
			"name":"Text.002",
			"primitives":[
				{
					"attributes":{
						"POSITION":32,
						"NORMAL":33,
						"TEXCOORD_0":34
					},
					"indices":35,
					"material":1
				}
			]
		},
		{
			"name":"Text.009",
			"primitives":[
				{
					"attributes":{
						"POSITION":36,
						"NORMAL":37,
						"TEXCOORD_0":38
					},
					"indices":39,
					"material":0
				}
			]
		},
		{
			"name":"Text.003",
			"primitives":[
				{
					"attributes":{
						"POSITION":40,
						"NORMAL":41,
						"TEXCOORD_0":42
					},
					"indices":43,
					"material":1
				}
			]
		},
		{
			"name":"Text.010",
			"primitives":[
				{
					"attributes":{
						"POSITION":44,
						"NORMAL":45,
						"TEXCOORD_0":46
					},
					"indices":47,
					"material":0
				}
			]
		},
		{
			"name":"Text.005",
			"primitives":[
				{
					"attributes":{
						"POSITION":48,
						"NORMAL":49,
						"TEXCOORD_0":50
					},
					"indices":23,
					"material":1
				}
			]
		},
		{
			"name":"Text.012",
			"primitives":[
				{
					"attributes":{
						"POSITION":51,
						"NORMAL":52,
						"TEXCOORD_0":53
					},
					"indices":19,
					"material":0
				}
			]
		}
	],
	"accessors":[
		{
			"bufferView":0,
			"componentType":5126,
			"count":2836,
			"max":[
				0.367961049079895,
				0.20000000298023224,
				0.03361346572637558
			],
			"min":[
				0.01860939711332321,
				-0.20000000298023224,
				-0.43889713287353516
			],
			"type":"VEC3"
		},
		{
			"bufferView":1,
			"componentType":5126,
			"count":2836,
			"type":"VEC3"
		},
		{
			"bufferView":2,
			"componentType":5126,
			"count":2836,
			"type":"VEC2"
		},
		{
			"bufferView":3,
			"componentType":5123,
			"count":8076,
			"type":"SCALAR"
		},
		{
			"bufferView":4,
			"componentType":5126,
			"count":3542,
			"max":[
				0.35728955268859863,
				0.20000000298023224,
				0.023271732032299042
			],
			"min":[
				0.028747433796525,
				-0.20000000298023224,
				-0.42778921127319336
			],
			"type":"VEC3"
		},
		{
			"bufferView":5,
			"componentType":5126,
			"count":3542,
			"type":"VEC3"
		},
		{
			"bufferView":6,
			"componentType":5126,
			"count":3542,
			"type":"VEC2"
		},
		{
			"bufferView":7,
			"componentType":5123,
			"count":10608,
			"type":"SCALAR"
		},
		{
			"bufferView":8,
			"componentType":5126,
			"count":3808,
			"max":[
				0.49117863178253174,
				0.20000000298023224,
				0.03366467356681824
			],
			"min":[
				-0.0039621624164283276,
				-0.20000000298023224,
				-0.5213232040405273
			],
			"type":"VEC3"
		},
		{
			"bufferView":9,
			"componentType":5126,
			"count":3808,
			"type":"VEC3"
		},
		{
			"bufferView":10,
			"componentType":5126,
			"count":3808,
			"type":"VEC2"
		},
		{
			"bufferView":11,
			"componentType":5123,
			"count":10608,
			"type":"SCALAR"
		},
		{
			"bufferView":12,
			"componentType":5126,
			"count":4538,
			"max":[
				0.48117491602897644,
				0.20000000298023224,
				0.007937867194414139
			],
			"min":[
				0.00684462720528245,
				-0.20000000298023224,
				-0.5113221406936646
			],
			"type":"VEC3"
		},
		{
			"bufferView":13,
			"componentType":5126,
			"count":4538,
			"type":"VEC3"
		},
		{
			"bufferView":14,
			"componentType":5126,
			"count":4538,
			"type":"VEC2"
		},
		{
			"bufferView":15,
			"componentType":5123,
			"count":13524,
			"type":"SCALAR"
		},
		{
			"bufferView":16,
			"componentType":5126,
			"count":3652,
			"max":[
				0.39345380663871765,
				0.20000000298023224,
				0.019031167030334473
			],
			"min":[
				-0.003156050108373165,
				-0.20000000298023224,
				-0.4597189426422119
			],
			"type":"VEC3"
		},
		{
			"bufferView":17,
			"componentType":5126,
			"count":3652,
			"type":"VEC3"
		},
		{
			"bufferView":18,
			"componentType":5126,
			"count":3652,
			"type":"VEC2"
		},
		{
			"bufferView":19,
			"componentType":5123,
			"count":10620,
			"type":"SCALAR"
		},
		{
			"bufferView":20,
			"componentType":5126,
			"count":4389,
			"max":[
				0.3826146721839905,
				0.20000000298023224,
				0.009031103923916817
			],
			"min":[
				0.006844626739621162,
				-0.20000000298023224,
				-0.41820672154426575
			],
			"type":"VEC3"
		},
		{
			"bufferView":21,
			"componentType":5126,
			"count":4389,
			"type":"VEC3"
		},
		{
			"bufferView":22,
			"componentType":5126,
			"count":4389,
			"type":"VEC2"
		},
		{
			"bufferView":23,
			"componentType":5123,
			"count":13092,
			"type":"SCALAR"
		},
		{
			"bufferView":24,
			"componentType":5126,
			"count":4140,
			"max":[
				0.4572210907936096,
				0.20000000298023224,
				0.024811774492263794
			],
			"min":[
				0.00684462720528245,
				-0.20000000298023224,
				-0.5133470296859741
			],
			"type":"VEC3"
		},
		{
			"bufferView":25,
			"componentType":5126,
			"count":4140,
			"type":"VEC3"
		},
		{
			"bufferView":26,
			"componentType":5126,
			"count":4140,
			"type":"VEC2"
		},
		{
			"bufferView":27,
			"componentType":5123,
			"count":12408,
			"type":"SCALAR"
		},
		{
			"bufferView":28,
			"componentType":5126,
			"count":3204,
			"max":[
				0.48168545961380005,
				0.20000000298023224,
				0.03481416404247284
			],
			"min":[
				-0.011093543842434883,
				-0.20000000298023224,
				-0.5237615704536438
			],
			"type":"VEC3"
		},
		{
			"bufferView":29,
			"componentType":5126,
			"count":3204,
			"type":"VEC3"
		},
		{
			"bufferView":30,
			"componentType":5126,
			"count":3204,
			"type":"VEC2"
		},
		{
			"bufferView":31,
			"componentType":5123,
			"count":9102,
			"type":"SCALAR"
		},
		{
			"bufferView":32,
			"componentType":5126,
			"count":4668,
			"max":[
				0.41067764163017273,
				0.20000000298023224,
				0.009582478553056717
			],
			"min":[
				-0.017796030268073082,
				-0.20000000298023224,
				-0.41957566142082214
			],
			"type":"VEC3"
		},
		{
			"bufferView":33,
			"componentType":5126,
			"count":4668,
			"type":"VEC3"
		},
		{
			"bufferView":34,
			"componentType":5126,
			"count":4668,
			"type":"VEC2"
		},
		{
			"bufferView":35,
			"componentType":5123,
			"count":13980,
			"type":"SCALAR"
		},
		{
			"bufferView":36,
			"componentType":5126,
			"count":4462,
			"max":[
				0.42475250363349915,
				0.20000000298023224,
				0.01965775527060032
			],
			"min":[
				-0.03303194418549538,
				-0.20000000298023224,
				-0.4329855144023895
			],
			"type":"VEC3"
		},
		{
			"bufferView":37,
			"componentType":5126,
			"count":4462,
			"type":"VEC3"
		},
		{
			"bufferView":38,
			"componentType":5126,
			"count":4462,
			"type":"VEC2"
		},
		{
			"bufferView":39,
			"componentType":5123,
			"count":12558,
			"type":"SCALAR"
		},
		{
			"bufferView":40,
			"componentType":5126,
			"count":4160,
			"max":[
				0.41341549158096313,
				0.20000000298023224,
				0.0047912392765283585
			],
			"min":[
				-0.010266941040754318,
				-0.20000000298023224,
				-0.42299795150756836
			],
			"type":"VEC3"
		},
		{
			"bufferView":41,
			"componentType":5126,
			"count":4160,
			"type":"VEC3"
		},
		{
			"bufferView":42,
			"componentType":5126,
			"count":4160,
			"type":"VEC2"
		},
		{
			"bufferView":43,
			"componentType":5123,
			"count":12372,
			"type":"SCALAR"
		},
		{
			"bufferView":44,
			"componentType":5126,
			"count":3812,
			"max":[
				0.42393752932548523,
				0.20000000298023224,
				0.015024267137050629
			],
			"min":[
				-0.02175358310341835,
				-0.20000000298023224,
				-0.4339779317378998
			],
			"type":"VEC3"
		},
		{
			"bufferView":45,
			"componentType":5126,
			"count":3812,
			"type":"VEC3"
		},
		{
			"bufferView":46,
			"componentType":5126,
			"count":3812,
			"type":"VEC2"
		},
		{
			"bufferView":47,
			"componentType":5123,
			"count":10602,
			"type":"SCALAR"
		},
		{
			"bufferView":48,
			"componentType":5126,
			"count":4389,
			"max":[
				0.3826146721839905,
				0.20000000298023224,
				0.009031103923916817
			],
			"min":[
				0.006844626739621162,
				-0.20000000298023224,
				-0.41820672154426575
			],
			"type":"VEC3"
		},
		{
			"bufferView":49,
			"componentType":5126,
			"count":4389,
			"type":"VEC3"
		},
		{
			"bufferView":50,
			"componentType":5126,
			"count":4389,
			"type":"VEC2"
		},
		{
			"bufferView":51,
			"componentType":5126,
			"count":3652,
			"max":[
				0.39345380663871765,
				0.20000000298023224,
				0.019031167030334473
			],
			"min":[
				-0.003156050108373165,
				-0.20000000298023224,
				-0.4597189426422119
			],
			"type":"VEC3"
		},
		{
			"bufferView":52,
			"componentType":5126,
			"count":3652,
			"type":"VEC3"
		},
		{
			"bufferView":53,
			"componentType":5126,
			"count":3652,
			"type":"VEC2"
		},
		{
			"bufferView":54,
			"componentType":5126,
			"count":165,
			"max":[
				6.875
			],
			"min":[
				0.041666666666666664
			],
			"type":"SCALAR"
		},
		{
			"bufferView":55,
			"componentType":5126,
			"count":165,
			"type":"VEC3"
		},
		{
			"bufferView":56,
			"componentType":5126,
			"count":165,
			"type":"VEC3"
		},
		{
			"bufferView":57,
			"componentType":5126,
			"count":165,
			"type":"VEC3"
		},
		{
			"bufferView":58,
			"componentType":5126,
			"count":165,
			"type":"VEC3"
		},
		{
			"bufferView":59,
			"componentType":5126,
			"count":1,
			"max":[
				0
			],
			"min":[
				0
			],
			"type":"SCALAR"
		},
		{
			"bufferView":60,
			"componentType":5126,
			"count":1,
			"type":"VEC3"
		},
		{
			"bufferView":61,
			"componentType":5126,
			"count":165,
			"type":"VEC3"
		},
		{
			"bufferView":62,
			"componentType":5126,
			"count":1,
			"type":"VEC3"
		},
		{
			"bufferView":63,
			"componentType":5126,
			"count":165,
			"type":"VEC3"
		},
		{
			"bufferView":64,
			"componentType":5126,
			"count":1,
			"type":"VEC3"
		},
		{
			"bufferView":65,
			"componentType":5126,
			"count":165,
			"type":"VEC3"
		},
		{
			"bufferView":66,
			"componentType":5126,
			"count":1,
			"type":"VEC3"
		}
	],
	"bufferViews":[
		{
			"buffer":0,
			"byteLength":34032,
			"byteOffset":0,
			"target":34962
		},
		{
			"buffer":0,
			"byteLength":34032,
			"byteOffset":34032,
			"target":34962
		},
		{
			"buffer":0,
			"byteLength":22688,
			"byteOffset":68064,
			"target":34962
		},
		{
			"buffer":0,
			"byteLength":16152,
			"byteOffset":90752,
			"target":34963
		},
		{
			"buffer":0,
			"byteLength":42504,
			"byteOffset":106904,
			"target":34962
		},
		{
			"buffer":0,
			"byteLength":42504,
			"byteOffset":149408,
			"target":34962
		},
		{
			"buffer":0,
			"byteLength":28336,
			"byteOffset":191912,
			"target":34962
		},
		{
			"buffer":0,
			"byteLength":21216,
			"byteOffset":220248,
			"target":34963
		},
		{
			"buffer":0,
			"byteLength":45696,
			"byteOffset":241464,
			"target":34962
		},
		{
			"buffer":0,
			"byteLength":45696,
			"byteOffset":287160,
			"target":34962
		},
		{
			"buffer":0,
			"byteLength":30464,
			"byteOffset":332856,
			"target":34962
		},
		{
			"buffer":0,
			"byteLength":21216,
			"byteOffset":363320,
			"target":34963
		},
		{
			"buffer":0,
			"byteLength":54456,
			"byteOffset":384536,
			"target":34962
		},
		{
			"buffer":0,
			"byteLength":54456,
			"byteOffset":438992,
			"target":34962
		},
		{
			"buffer":0,
			"byteLength":36304,
			"byteOffset":493448,
			"target":34962
		},
		{
			"buffer":0,
			"byteLength":27048,
			"byteOffset":529752,
			"target":34963
		},
		{
			"buffer":0,
			"byteLength":43824,
			"byteOffset":556800,
			"target":34962
		},
		{
			"buffer":0,
			"byteLength":43824,
			"byteOffset":600624,
			"target":34962
		},
		{
			"buffer":0,
			"byteLength":29216,
			"byteOffset":644448,
			"target":34962
		},
		{
			"buffer":0,
			"byteLength":21240,
			"byteOffset":673664,
			"target":34963
		},
		{
			"buffer":0,
			"byteLength":52668,
			"byteOffset":694904,
			"target":34962
		},
		{
			"buffer":0,
			"byteLength":52668,
			"byteOffset":747572,
			"target":34962
		},
		{
			"buffer":0,
			"byteLength":35112,
			"byteOffset":800240,
			"target":34962
		},
		{
			"buffer":0,
			"byteLength":26184,
			"byteOffset":835352,
			"target":34963
		},
		{
			"buffer":0,
			"byteLength":49680,
			"byteOffset":861536,
			"target":34962
		},
		{
			"buffer":0,
			"byteLength":49680,
			"byteOffset":911216,
			"target":34962
		},
		{
			"buffer":0,
			"byteLength":33120,
			"byteOffset":960896,
			"target":34962
		},
		{
			"buffer":0,
			"byteLength":24816,
			"byteOffset":994016,
			"target":34963
		},
		{
			"buffer":0,
			"byteLength":38448,
			"byteOffset":1018832,
			"target":34962
		},
		{
			"buffer":0,
			"byteLength":38448,
			"byteOffset":1057280,
			"target":34962
		},
		{
			"buffer":0,
			"byteLength":25632,
			"byteOffset":1095728,
			"target":34962
		},
		{
			"buffer":0,
			"byteLength":18204,
			"byteOffset":1121360,
			"target":34963
		},
		{
			"buffer":0,
			"byteLength":56016,
			"byteOffset":1139564,
			"target":34962
		},
		{
			"buffer":0,
			"byteLength":56016,
			"byteOffset":1195580,
			"target":34962
		},
		{
			"buffer":0,
			"byteLength":37344,
			"byteOffset":1251596,
			"target":34962
		},
		{
			"buffer":0,
			"byteLength":27960,
			"byteOffset":1288940,
			"target":34963
		},
		{
			"buffer":0,
			"byteLength":53544,
			"byteOffset":1316900,
			"target":34962
		},
		{
			"buffer":0,
			"byteLength":53544,
			"byteOffset":1370444,
			"target":34962
		},
		{
			"buffer":0,
			"byteLength":35696,
			"byteOffset":1423988,
			"target":34962
		},
		{
			"buffer":0,
			"byteLength":25116,
			"byteOffset":1459684,
			"target":34963
		},
		{
			"buffer":0,
			"byteLength":49920,
			"byteOffset":1484800,
			"target":34962
		},
		{
			"buffer":0,
			"byteLength":49920,
			"byteOffset":1534720,
			"target":34962
		},
		{
			"buffer":0,
			"byteLength":33280,
			"byteOffset":1584640,
			"target":34962
		},
		{
			"buffer":0,
			"byteLength":24744,
			"byteOffset":1617920,
			"target":34963
		},
		{
			"buffer":0,
			"byteLength":45744,
			"byteOffset":1642664,
			"target":34962
		},
		{
			"buffer":0,
			"byteLength":45744,
			"byteOffset":1688408,
			"target":34962
		},
		{
			"buffer":0,
			"byteLength":30496,
			"byteOffset":1734152,
			"target":34962
		},
		{
			"buffer":0,
			"byteLength":21204,
			"byteOffset":1764648,
			"target":34963
		},
		{
			"buffer":0,
			"byteLength":52668,
			"byteOffset":1785852,
			"target":34962
		},
		{
			"buffer":0,
			"byteLength":52668,
			"byteOffset":1838520,
			"target":34962
		},
		{
			"buffer":0,
			"byteLength":35112,
			"byteOffset":1891188,
			"target":34962
		},
		{
			"buffer":0,
			"byteLength":43824,
			"byteOffset":1926300,
			"target":34962
		},
		{
			"buffer":0,
			"byteLength":43824,
			"byteOffset":1970124,
			"target":34962
		},
		{
			"buffer":0,
			"byteLength":29216,
			"byteOffset":2013948,
			"target":34962
		},
		{
			"buffer":0,
			"byteLength":660,
			"byteOffset":2043164
		},
		{
			"buffer":0,
			"byteLength":1980,
			"byteOffset":2043824
		},
		{
			"buffer":0,
			"byteLength":1980,
			"byteOffset":2045804
		},
		{
			"buffer":0,
			"byteLength":1980,
			"byteOffset":2047784
		},
		{
			"buffer":0,
			"byteLength":1980,
			"byteOffset":2049764
		},
		{
			"buffer":0,
			"byteLength":4,
			"byteOffset":2051744
		},
		{
			"buffer":0,
			"byteLength":12,
			"byteOffset":2051748
		},
		{
			"buffer":0,
			"byteLength":1980,
			"byteOffset":2051760
		},
		{
			"buffer":0,
			"byteLength":12,
			"byteOffset":2053740
		},
		{
			"buffer":0,
			"byteLength":1980,
			"byteOffset":2053752
		},
		{
			"buffer":0,
			"byteLength":12,
			"byteOffset":2055732
		},
		{
			"buffer":0,
			"byteLength":1980,
			"byteOffset":2055744
		},
		{
			"buffer":0,
			"byteLength":12,
			"byteOffset":2057724
		}
	],
	"buffers":[
		{
			"byteLength":2057736,
			"uri":"name.bin"
		}
	]
}
